<?xml version="1.0" encoding="UTF-8"?>
<!DOCTYPE svg PUBLIC "-//W3C//DTD SVG 1.1//EN" "http://www.w3.org/Graphics/SVG/1.1/DTD/svg11.dtd">
<!-- Creator: CorelDRAW 2019 (64-Bit) -->
<svg xmlns="http://www.w3.org/2000/svg" xml:space="preserve" width="5.1596mm" height="6.2177mm" version="1.1" style="shape-rendering:geometricPrecision; text-rendering:geometricPrecision; image-rendering:optimizeQuality; fill-rule:evenodd; clip-rule:evenodd"
viewBox="0 0 17.1 20.6"
 xmlns:xlink="http://www.w3.org/1999/xlink">
 <defs>
  <style type="text/css">
   <![CDATA[
    .str0 {stroke:#B3581B;stroke-width:1.32;stroke-linecap:round;stroke-linejoin:round;stroke-miterlimit:22.9256}
    .fil0 {fill:none}
   ]]>
  </style>
 </defs>
 <g id="Слой_x0020_1">
  <metadata id="CorelCorpID_0Corel-Layer"/>
  <path class="fil0 str0" d="M16.44 8.55c0,6.14 -7.89,11.4 -7.89,11.4 0,0 -7.89,-5.26 -7.89,-11.4 0,-2.09 0.83,-4.1 2.31,-5.58 1.48,-1.48 3.49,-2.31 5.58,-2.31 2.09,0 4.1,0.83 5.58,2.31 1.48,1.48 2.31,3.49 2.31,5.58z"/>
  <path class="fil0 str0" d="M8.55 11.18c1.45,0 2.63,-1.18 2.63,-2.63 0,-1.45 -1.18,-2.63 -2.63,-2.63 -1.45,0 -2.63,1.18 -2.63,2.63 0,1.45 1.18,2.63 2.63,2.63z"/>
 </g>
</svg>
