<?xml version="1.0" encoding="UTF-8"?>
<!DOCTYPE svg PUBLIC "-//W3C//DTD SVG 1.1//EN" "http://www.w3.org/Graphics/SVG/1.1/DTD/svg11.dtd">
<!-- Creator: CorelDRAW 2019 (64-Bit) -->
<svg xmlns="http://www.w3.org/2000/svg" xml:space="preserve" width="10.5806mm" height="10.5806mm" version="1.1" style="shape-rendering:geometricPrecision; text-rendering:geometricPrecision; image-rendering:optimizeQuality; fill-rule:evenodd; clip-rule:evenodd"
viewBox="0 0 46.51 46.51"
 xmlns:xlink="http://www.w3.org/1999/xlink">
 <defs>
  <style type="text/css">
   <![CDATA[
    .str0 {stroke:#B3581B;stroke-width:1.16;stroke-miterlimit:22.9256}
    .fil0 {fill:none}
    .fil1 {fill:#B3581B}
   ]]>
  </style>
 </defs>
 <g id="Слой_x0020_1">
  <metadata id="CorelCorpID_0Corel-Layer"/>
  <circle class="fil0 str0" cx="23.25" cy="23.25" r="22.67"/>
  <path class="fil1" d="M13.56 28.62l0 -0.24 0 -4.14c2.56,0 6.89,-0.69 6.98,2.22 0.09,2.94 -4.48,2.17 -6.98,2.17zm0 -10.85c2.06,0.03 6.46,-0.83 6.34,1.95 -0.1,2.5 -4.15,1.85 -6.32,1.86l-0.03 -3.8 0 -0.01zm-3.3 13.57c4.59,0 14.42,1.68 13.59,-5.26 -0.25,-2.15 -1.25,-2.48 -2.89,-3.36 2.62,-1.78 3.16,-5.18 0.03,-6.99 -1.73,-0.99 -8.28,-0.62 -10.74,-0.62l0.01 16.24 0 0z"/>
  <path class="fil1" d="M28.09 24.02c0.09,-1.5 0.82,-2.68 2.38,-2.73 1.77,-0.05 2.32,1.16 2.57,2.75l-4.96 -0.03zm8.06 3.5l-3.34 -0.1c-0.79,1.99 -4.32,2.51 -4.76,-1.44l8.22 -0.01c-0.06,-9.73 -10.38,-8.59 -11.44,-2.31 -1.59,9.38 10.22,9.34 11.32,3.85l0 0.01z"/>
  <path class="fil1" d="M27.25 17.05c0.82,0.5 5.67,0.29 6.57,0.24l0 -1.5 -6.57 -0.04 0 1.3z"/>
 </g>
</svg>
