<?xml version="1.0" encoding="UTF-8"?>
<!DOCTYPE svg PUBLIC "-//W3C//DTD SVG 1.1//EN" "http://www.w3.org/Graphics/SVG/1.1/DTD/svg11.dtd">
<!-- Creator: CorelDRAW 2019 (64-Bit) -->
<svg xmlns="http://www.w3.org/2000/svg" xml:space="preserve" width="10.5834mm" height="10.5834mm" version="1.1" style="shape-rendering:geometricPrecision; text-rendering:geometricPrecision; image-rendering:optimizeQuality; fill-rule:evenodd; clip-rule:evenodd"
viewBox="0 0 1041.94 1041.94"
 xmlns:xlink="http://www.w3.org/1999/xlink">
 <defs>
  <style type="text/css">
   <![CDATA[
    .str0 {stroke:#B3581B;stroke-width:26.05;stroke-miterlimit:22.9256}
    .fil1 {fill:none}
    .fil0 {fill:#B3581B}
   ]]>
  </style>
 </defs>
 <g id="Слой_x0020_1">
  <metadata id="CorelCorpID_0Corel-Layer"/>
  <path class="fil0" d="M263.44 348.72c-0.51,6.09 -3.72,10.08 -5.25,16.16 -1.55,6.21 -3.25,11.24 -4.6,17.62 -5.77,26.8 -5.53,56.13 1.26,82.66 1.12,4.34 2.82,8.62 3.82,12.85 -5,7.46 -13.5,15.82 -19.73,25.54 -3.07,4.79 -5.32,9.22 -8.13,14.09 -24.92,43 -25.11,97.75 -18.37,145.34 2.57,18.24 6.68,36.1 12.84,53.04l16.53 35.06c5.67,9.03 12.06,16.96 18.45,25.22l22.69 21.78c17.74,13.2 35.26,23.34 56.67,31.49 22.76,8.62 46.24,14.07 70.37,17.79 8.44,1.29 18.34,1.75 25.9,3.51 -4.04,6.01 -36.48,22.1 -39.14,79.06 -0.74,16.34 -1.54,64.65 -0.47,83.36 37.59,10.56 77.28,16.24 118.35,16.24 45.74,0 89.8,-7.05 131.12,-20.05l0.34 -72.13c-0.02,-7.49 -0.47,-16 -2.13,-23.62 -3.99,-18.29 -9.08,-31.46 -20.5,-46.19 -3.44,-4.44 -8.21,-9.33 -12.72,-12.71 -1.59,-1.21 -3.64,-2.41 -4.78,-3.95l24.54 -3.3c23.83,-2.52 58.25,-11.56 80.36,-21.32 23.59,-10.42 46.72,-23.75 64.3,-42.9l12.36 -13.83c10.97,-14.6 20,-30.16 26.79,-47.04 14.53,-36.01 18.98,-73.06 18.98,-114.35 0,-39.42 -10.32,-74.71 -30.06,-104.09 -2.8,-4.15 -5.9,-9.55 -9.11,-13.12 -3.58,-3.94 -6.5,-9.15 -10.94,-12.09 4.35,-18.57 9.55,-25.76 9.55,-51.57 0,-18.08 -1.85,-35.85 -5.87,-52.04l-5.59 -18.22c-3.66,-9.46 -2.99,-9.85 -13.96,-9.85 -27.35,0 -59.84,13.34 -81.91,26.14l-31.49 18.53c-2.33,1.38 -3.82,2.34 -5.81,3.71 -7.49,5.14 -8.17,1.47 -21.66,-1.38 -63.24,-13.32 -111.91,-15.39 -176.98,-6.51 -16.76,2.29 -32.38,6.59 -48.43,10.44 -2.9,0.7 -3.52,-0.23 -6.15,-2.07 -11.12,-7.68 -24.38,-16.31 -36.48,-22.29 -20.54,-10.15 -41.1,-19.68 -63.75,-24.37 -10.5,-2.17 -20.97,-3.01 -31.21,-0.62z"/>
  <circle class="fil1 str0" cx="520.97" cy="520.97" r="507.94"/>
 </g>
</svg>
