<?xml version="1.0" encoding="UTF-8"?>
<!DOCTYPE svg PUBLIC "-//W3C//DTD SVG 1.1//EN" "http://www.w3.org/Graphics/SVG/1.1/DTD/svg11.dtd">
<!-- Creator: CorelDRAW 2019 (64-Bit) -->
<svg xmlns="http://www.w3.org/2000/svg" xml:space="preserve" width="10.5834mm" height="10.5834mm" version="1.1" style="shape-rendering:geometricPrecision; text-rendering:geometricPrecision; image-rendering:optimizeQuality; fill-rule:evenodd; clip-rule:evenodd"
viewBox="0 0 39.02 39.02"
 xmlns:xlink="http://www.w3.org/1999/xlink">
 <defs>
  <style type="text/css">
   <![CDATA[
    .str0 {stroke:#B3581B;stroke-width:0.98;stroke-miterlimit:22.9256}
    .fil1 {fill:none}
    .fil0 {fill:#B3581B}
   ]]>
  </style>
 </defs>
 <g id="Слой_x0020_1">
  <metadata id="CorelCorpID_0Corel-Layer"/>
  <path class="fil0" d="M13.8 15.6c0.98,0 1.78,-0.8 1.78,-1.78 0,-0.98 -0.8,-1.78 -1.78,-1.78 -0.98,0 -1.78,0.8 -1.78,1.78 0,0.98 0.8,1.78 1.78,1.78z"/>
  <path class="fil0" d="M17.26 16.95l0 9.87 3.06 0 0 -4.88c0,-1.29 0.24,-2.53 1.84,-2.53 1.57,0 1.59,1.47 1.59,2.62l0 4.8 3.07 0 0 -5.41c0,-2.66 -0.57,-4.7 -3.68,-4.7 -1.49,0 -2.49,0.82 -2.9,1.59l-0.04 0 0 -1.35 -2.94 0zm-4.99 0l3.07 0 0 9.87 -3.07 0 0 -9.87z"/>
  <path class="fil1 str0" d="M38.53 19.51c0,-10.51 -8.52,-19.02 -19.02,-19.02 -10.51,0 -19.02,8.52 -19.02,19.02 0,10.51 8.52,19.02 19.02,19.02 10.51,0 19.02,-8.52 19.02,-19.02z"/>
 </g>
</svg>
