<?xml version="1.0" encoding="UTF-8"?>
<!DOCTYPE svg PUBLIC "-//W3C//DTD SVG 1.1//EN" "http://www.w3.org/Graphics/SVG/1.1/DTD/svg11.dtd">
<!-- Creator: CorelDRAW 2019 (64-Bit) -->
<svg xmlns="http://www.w3.org/2000/svg" xml:space="preserve" width="10.5834mm" height="10.5834mm" version="1.1" style="shape-rendering:geometricPrecision; text-rendering:geometricPrecision; image-rendering:optimizeQuality; fill-rule:evenodd; clip-rule:evenodd"
viewBox="0 0 1052.37 1052.37"
 xmlns:xlink="http://www.w3.org/1999/xlink">
 <defs>
  <style type="text/css">
   <![CDATA[
    .str0 {stroke:#B3581B;stroke-width:26.31;stroke-miterlimit:22.9256}
    .fil1 {fill:none}
    .fil0 {fill:#B3581B}
   ]]>
  </style>
 </defs>
 <g id="Слой_x0020_1">
  <metadata id="CorelCorpID_0Corel-Layer"/>
  <path class="fil0" d="M526.12 401.05c-69.07,0 -125.02,55.98 -125.02,125.02 0,69.07 55.95,125.05 125.02,125.05 69.02,0 125.02,-55.98 125.02,-125.05 0,-69.04 -56,-125.02 -125.02,-125.02zm0 206.26c-44.87,0 -81.23,-36.37 -81.23,-81.21 0,-44.88 36.36,-81.21 81.23,-81.21 44.87,0 81.19,36.33 81.19,81.21 0,44.84 -36.32,81.21 -81.19,81.21z"/>
  <path class="fil0" d="M656.12 425.6c16.11,0 29.15,-13.05 29.15,-29.15 0,-16.1 -13.05,-29.15 -29.15,-29.15 -16.1,0 -29.15,13.06 -29.15,29.15 0,16.11 13.06,29.15 29.15,29.15z"/>
  <path class="fil0" d="M756.91 366.81c-12.69,-32.69 -38.5,-58.54 -71.21,-71.18 -18.89,-7.11 -38.89,-10.93 -59.11,-11.36 -26.04,-1.14 -34.3,-1.46 -100.33,-1.46 -66.04,0 -74.5,0 -100.33,1.46 -20.18,0.41 -40.16,4.22 -59.07,11.36 -32.72,12.64 -58.55,38.48 -71.21,71.18 -7.12,18.94 -10.92,38.9 -11.33,59.12 -1.16,26.01 -1.52,34.26 -1.52,100.33 0,66.04 0,74.45 1.52,100.33 0.41,20.23 4.21,40.19 11.33,59.14 12.68,32.67 38.51,58.53 71.24,71.18 18.82,7.36 38.81,11.52 59.09,12.18 26.04,1.12 34.29,1.48 100.33,1.48 66.04,0 74.5,0 100.33,-1.48 20.21,-0.41 40.18,-4.26 59.1,-11.34 32.7,-12.68 58.54,-38.51 71.22,-71.22 7.11,-18.92 10.93,-38.88 11.34,-59.1 1.16,-26.02 1.51,-34.27 1.51,-100.34 0,-66.07 0,-74.46 -1.51,-100.33 -0.36,-20.5 -4.14,-40.81 -11.4,-59.96zm-32.93 257.79c-0.19,15.57 -3,31.01 -8.41,45.65 -8.24,21.28 -25.04,38.09 -46.3,46.27 -14.47,5.38 -29.71,8.19 -45.17,8.41 -25.67,1.19 -32.92,1.48 -98.81,1.48 -65.93,0 -72.66,0 -98.84,-1.48 -15.39,-0.19 -30.7,-3.03 -45.14,-8.41 -21.33,-8.14 -38.24,-24.96 -46.49,-46.27 -5.3,-14.45 -8.16,-29.72 -8.41,-45.13 -1.15,-25.7 -1.43,-32.95 -1.43,-98.83 0,-65.9 0,-72.64 1.43,-98.83 0.2,-15.58 3,-30.99 8.41,-45.63 8.24,-21.34 25.16,-38.13 46.49,-46.3 14.45,-5.35 29.75,-8.19 45.14,-8.42 25.71,-1.15 32.94,-1.48 98.84,-1.48 65.91,0 72.67,0 98.81,1.48 15.46,0.2 30.71,3.03 45.17,8.42 21.26,8.19 38.05,25.02 46.3,46.3 5.3,14.44 8.16,29.72 8.41,45.13 1.16,25.72 1.46,32.93 1.46,98.85 0,65.88 0,72.96 -1.16,98.81l-0.3 0 0 -0.02z"/>
  <circle class="fil1 str0" cx="526.19" cy="526.19" r="513.03"/>
 </g>
</svg>
