<?xml version="1.0" encoding="UTF-8"?>
<!DOCTYPE svg PUBLIC "-//W3C//DTD SVG 1.1//EN" "http://www.w3.org/Graphics/SVG/1.1/DTD/svg11.dtd">
<!-- Creator: CorelDRAW 2019 (64-Bit) -->
<svg xmlns="http://www.w3.org/2000/svg" xml:space="preserve" width="4.0168mm" height="6.3072mm" version="1.1" style="shape-rendering:geometricPrecision; text-rendering:geometricPrecision; image-rendering:optimizeQuality; fill-rule:evenodd; clip-rule:evenodd"
viewBox="0 0 6.02 9.46"
 xmlns:xlink="http://www.w3.org/1999/xlink">
 <defs>
  <style type="text/css">
   <![CDATA[
    .fil0 {fill:#B3581B}
   ]]>
  </style>
 </defs>
 <g id="Слой_x0020_1">
  <metadata id="CorelCorpID_0Corel-Layer"/>
  <g id="_2223248085120">
   <g id="_2223252744672">
    <path class="fil0" d="M5.56 7.76c0,0.14 0.01,0.83 0,0.92 -0.01,0.13 -0.1,0.23 -0.18,0.28 -0.1,0.08 -0.23,0.09 -0.39,0.09l-3.93 0c-0.17,0 -0.3,-0.01 -0.39,-0.09 -0.08,-0.06 -0.16,-0.14 -0.18,-0.3l0 -0.9 5.08 0 -0.01 0zm-5.08 -5.59l5.08 0 0 5.16 -5.08 0 0 -5.16zm0 -0.43c0,-0.16 0,-0.31 0,-0.47 0,-0.3 -0.06,-0.57 0.18,-0.74 0.12,-0.08 0.23,-0.09 0.4,-0.09l3.93 0c0.17,0 0.3,0.01 0.4,0.09 0.08,0.06 0.16,0.16 0.17,0.3l0 0.9 -5.08 0 0 0zm5.22 -1.52c-0.05,-0.03 -0.13,-0.08 -0.21,-0.12 -0.08,-0.03 -0.16,-0.05 -0.25,-0.08 -0.17,-0.03 -0.44,-0.01 -0.62,-0.01l-2.55 0c-0.41,0 -0.87,-0.01 -1.27,0 -0.23,0.06 -0.35,0.06 -0.56,0.26 -0.13,0.13 -0.25,0.31 -0.26,0.56 -0.01,0.26 0,0.53 0,0.79l0 6.34c0,0.22 -0.03,0.58 0.01,0.78 0.06,0.4 0.44,0.72 0.92,0.72 1.11,0.01 2.29,0 3.41,0 0.56,0 1.05,0.09 1.41,-0.27 0.13,-0.13 0.25,-0.31 0.26,-0.56 0.01,-0.26 0,-0.53 0,-0.79l0 -6.34c0,-0.22 0.03,-0.59 -0.01,-0.79 -0.03,-0.14 -0.1,-0.3 -0.21,-0.41 -0.03,-0.04 -0.09,-0.06 -0.1,-0.1l0.01 0.03z"/>
    <path class="fil0" d="M2.1 1.12c0.03,0.21 0.26,0.18 0.39,0.18l1.16 0c0.1,0 0.17,0 0.23,-0.05 0.1,-0.09 0.1,-0.27 -0.05,-0.35 -0.08,-0.04 -0.17,-0.03 -0.26,-0.03l-1.16 0c-0.1,0 -0.17,0.01 -0.23,0.05 -0.04,0.04 -0.08,0.12 -0.06,0.19l-0.01 0z"/>
    <path class="fil0" d="M2.97 7.98c-0.62,0.09 -0.47,0.93 0.13,0.85 0.23,-0.03 0.43,-0.23 0.39,-0.49 -0.03,-0.21 -0.25,-0.4 -0.52,-0.36l0 0z"/>
   </g>
  </g>
 </g>
</svg>
