<?xml version="1.0" encoding="UTF-8"?>
<!DOCTYPE svg PUBLIC "-//W3C//DTD SVG 1.1//EN" "http://www.w3.org/Graphics/SVG/1.1/DTD/svg11.dtd">
<!-- Creator: CorelDRAW 2019 (64-Bit) -->
<svg xmlns="http://www.w3.org/2000/svg" xml:space="preserve" width="27.1112mm" height="23.4309mm" version="1.1" style="shape-rendering:geometricPrecision; text-rendering:geometricPrecision; image-rendering:optimizeQuality; fill-rule:evenodd; clip-rule:evenodd"
viewBox="0 0 217.07 187.6"
 xmlns:xlink="http://www.w3.org/1999/xlink">
 <defs>
  <style type="text/css">
   <![CDATA[
    .fil0 {fill:#B3581B}
   ]]>
  </style>
 </defs>
 <g id="Слой_x0020_1">
  <metadata id="CorelCorpID_0Corel-Layer"/>
  <g id="_2223257538960">
   <path class="fil0" d="M113.62 49.75c0,6.5 -0.05,8.67 1.69,15.27 7.12,26.92 34.71,43.83 62.42,36.97 1.74,-0.43 2.24,-0.9 4.15,-0.94 -5.79,24.85 -5.21,22.72 -15.02,46.46 -2.15,5.2 -12.73,24.74 -15.85,29.94 -10.98,18.27 1.02,7.68 11.28,0.68 9.22,-6.29 12.5,-9.47 19.69,-17.2 1.21,-1.3 1.68,-1.7 2.81,-3.12 6.41,-8.11 7.35,-10 12.59,-18.78 3.04,-5.09 5.29,-11.15 7.63,-16.96 4.96,-12.36 8,-26.07 10.12,-39.48 1.69,-10.67 1.93,-21.76 1.93,-32.84 0,-9.15 -4.25,-20.73 -9.08,-27.38 -2.64,-3.64 -3.87,-5.14 -7.13,-8.14 -0.62,-0.57 -0.88,-0.89 -1.49,-1.48 -4.4,-4.27 -13.93,-9.31 -20.12,-10.83 -13.8,-3.4 -23.69,-2.3 -36.39,3.3 -5.76,2.54 -9.95,5.93 -14.3,10.29 -8.68,8.68 -14.95,21.29 -14.95,34.23z"/>
   <path class="fil0" d="M-0 48.9c0,9.61 0.74,16.82 4.94,25.16 3.05,6.06 6.13,10.25 10.64,14.8 9.01,9.1 23.09,14.73 36.14,14.73 5.2,0 13.1,-1.32 16.53,-2.97l-2.71 12.55c-2.27,9.17 -8.11,25.79 -12.13,33.66 -0.88,1.73 -1.47,3.39 -2.4,5.23 -4.08,8.1 -8.7,17.05 -13.37,24.79 -1.34,2.21 -4.78,7.94 -5.01,10.68 4.38,0 12.32,-6.89 15.77,-9.24l16.99 -13.96c7.64,-7.6 13.19,-16.66 18.56,-25.95 8.18,-14.15 12.5,-30.8 15.99,-46.76 0.41,-1.87 0.6,-3.75 0.89,-5.47 2.61,-15.62 5.23,-40.41 -1.77,-55.34 -1.35,-2.89 -2.74,-5.34 -4.44,-7.86 -3.52,-5.23 -4.28,-5.64 -8.67,-9.99 -6.56,-6.51 -21.2,-12.82 -30.85,-12.82 -11.82,0 -14.84,0.24 -25.99,4.96 -2.55,1.08 -5.23,2.95 -7.43,4.44 -1.12,0.76 -2.4,1.66 -3.37,2.57l-4.66 4.66c-2.78,3.17 -5.59,6.47 -7.52,10.29 -3.1,6.1 -6.15,14.66 -6.15,21.84z"/>
  </g>
 </g>
</svg>
